<!DOCTYPE svg PUBLIC "-//W3C//DTD SVG 20010904//EN" "http://www.w3.org/TR/2001/REC-SVG-20010904/DTD/svg10.dtd">
<svg version="1.0" xmlns="http://www.w3.org/2000/svg" width="512px" height="512px" viewBox="0 0 5120 5120" preserveAspectRatio="xMidYMid meet">
<g id="layer101" fill="#ffffff" stroke="none">
 <path d="M2240 5105 c-389 -48 -766 -188 -1091 -404 -504 -335 -871 -825 -1043 -1395 -41 -132 -81 -333 -96 -468 -13 -125 -13 -431 0 -556 108 -1014 825 -1880 1804 -2176 132 -41 333 -81 468 -96 125 -13 431 -13 556 0 592 63 1141 332 1563 766 289 299 494 645 613 1038 74 243 106 468 106 746 0 209 -10 324 -46 505 -181 920 -867 1676 -1768 1949 -132 41 -333 81 -468 96 -131 14 -469 11 -598 -5z m1357 -871 c27 -16 48 -38 61 -66 12 -25 132 -577 292 -1343 335 -1604 320 -1528 309 -1567 -22 -79 -93 -134 -168 -132 -41 2 -3468 1333 -3513 1365 -55 40 -54 139 3 181 14 11 223 78 465 149 241 71 441 133 445 137 4 4 72 216 152 472 190 605 181 577 213 611 35 37 88 52 134 39 26 -7 99 -74 280 -254 l245 -245 360 266 c481 354 550 403 582 413 39 12 91 3 140 -26z"/>
 <path d="M1885 3758 c-29 -76 -255 -824 -255 -842 0 -14 10 -36 23 -50 19 -22 1845 -1161 1903 -1188 43 -20 83 29 56 68 -4 6 -365 327 -802 714 -437 387 -800 710 -807 720 -6 9 -26 140 -43 291 -17 151 -33 280 -35 287 -2 6 -11 12 -20 12 -9 0 -18 -6 -20 -12z"/>
 </g>

</svg>