<!DOCTYPE svg PUBLIC "-//W3C//DTD SVG 20010904//EN" "http://www.w3.org/TR/2001/REC-SVG-20010904/DTD/svg10.dtd">
<svg version="1.0" xmlns="http://www.w3.org/2000/svg" width="512px" height="512px" viewBox="0 0 5120 5120" preserveAspectRatio="xMidYMid meet">
<g id="layer101" fill="#ffffff" stroke="none">
 <path d="M2240 5105 c-389 -48 -766 -188 -1091 -404 -504 -335 -871 -825 -1043 -1395 -41 -132 -81 -333 -96 -468 -13 -125 -13 -431 0 -556 108 -1014 825 -1880 1804 -2176 132 -41 333 -81 468 -96 125 -13 431 -13 556 0 592 63 1141 332 1563 766 289 299 494 645 613 1038 74 243 106 468 106 746 0 209 -10 324 -46 505 -181 920 -867 1676 -1768 1949 -132 41 -333 81 -468 96 -131 14 -469 11 -598 -5z m532 -1545 c51 -15 75 -49 83 -118 21 -197 45 -273 97 -317 39 -33 88 -33 144 0 24 14 103 90 175 168 153 166 204 210 279 246 l55 26 338 3 338 3 36 -36 c33 -33 35 -39 31 -88 -9 -99 -107 -228 -361 -477 -98 -96 -187 -189 -198 -206 -22 -37 -25 -101 -5 -147 7 -18 93 -140 191 -272 221 -298 298 -414 341 -517 52 -121 45 -179 -24 -197 -29 -8 -464 -15 -679 -12 -53 1 -85 39 -138 163 -127 299 -268 533 -413 686 -78 84 -139 83 -182 -3 l-25 -50 -5 -385 c-5 -347 -7 -388 -23 -418 -32 -59 -50 -62 -413 -62 -362 0 -366 1 -424 67 -35 39 -33 49 13 58 78 17 131 66 152 139 41 141 37 533 -7 643 -58 146 -162 91 -337 -176 -78 -120 -206 -362 -272 -514 -22 -52 -46 -90 -71 -113 l-38 -34 -301 0 c-345 0 -359 3 -359 67 0 63 222 523 398 823 393 673 729 965 1202 1045 92 16 351 19 402 5z"/>
 </g>

</svg>