<!DOCTYPE svg PUBLIC "-//W3C//DTD SVG 20010904//EN" "http://www.w3.org/TR/2001/REC-SVG-20010904/DTD/svg10.dtd">
<svg version="1.0" xmlns="http://www.w3.org/2000/svg" width="512px" height="512px" viewBox="0 0 5120 5120" preserveAspectRatio="xMidYMid meet">
<g id="layer101" fill="#ffffff" stroke="none">
 <path d="M2240 5105 c-389 -48 -766 -188 -1091 -404 -504 -335 -871 -825 -1043 -1395 -41 -132 -81 -333 -96 -468 -13 -125 -13 -431 0 -556 108 -1014 825 -1880 1804 -2176 132 -41 333 -81 468 -96 125 -13 431 -13 556 0 592 63 1141 332 1563 766 289 299 494 645 613 1038 74 243 106 468 106 746 0 209 -10 324 -46 505 -181 920 -867 1676 -1768 1949 -132 41 -333 81 -468 96 -131 14 -469 11 -598 -5z m1490 -1323 c289 -27 349 -49 456 -165 71 -76 97 -132 124 -267 36 -178 49 -385 50 -790 0 -533 -29 -812 -99 -955 -40 -82 -125 -166 -203 -204 -78 -37 -132 -46 -383 -68 -173 -16 -323 -18 -1115 -18 -792 0 -942 2 -1115 18 -254 22 -305 31 -383 69 -90 44 -181 145 -215 237 -63 169 -87 425 -87 926 0 397 14 614 50 789 24 116 48 174 97 234 109 133 183 165 431 188 306 29 461 32 1322 29 769 -2 877 -5 1070 -23z"/>
 <path d="M2090 2525 c0 -334 4 -605 8 -603 70 28 1151 603 1145 608 -4 4 -215 114 -468 245 -253 130 -511 264 -572 297 l-113 59 0 -606z"/>
 </g>

</svg>