<!DOCTYPE svg PUBLIC "-//W3C//DTD SVG 20010904//EN" "http://www.w3.org/TR/2001/REC-SVG-20010904/DTD/svg10.dtd">
<svg version="1.0" xmlns="http://www.w3.org/2000/svg" width="512px" height="512px" viewBox="0 0 5120 5120" preserveAspectRatio="xMidYMid meet">
<g id="layer101" fill="#ffffff" stroke="none">
 <path d="M2305 5113 c-835 -89 -1558 -560 -1975 -1286 -148 -258 -247 -540 -303 -857 -19 -109 -21 -162 -21 -410 0 -248 2 -301 21 -410 94 -540 320 -987 693 -1374 383 -398 866 -650 1430 -749 109 -19 162 -21 410 -21 313 0 407 10 653 73 882 228 1600 946 1828 1828 63 246 73 340 73 653 0 248 -2 301 -21 410 -99 564 -352 1047 -749 1430 -386 372 -837 600 -1368 691 -97 17 -172 22 -376 24 -140 2 -273 1 -295 -2z m475 -1723 l0 -740 204 0 205 0 6 -42 c10 -76 45 -422 45 -450 l0 -28 -230 0 -230 0 0 -185 c0 -276 -1 -275 279 -275 l181 0 0 -250 0 -250 -270 0 c-208 0 -289 4 -348 16 -176 36 -312 139 -383 289 -55 117 -62 161 -67 418 l-4 237 -149 0 -149 0 0 260 0 260 150 0 150 0 0 740 0 740 305 0 305 0 0 -740z"/>
 </g>

</svg>